<svg width="300" height="300" viewBox="0 0 300 300" fill="none" xmlns="http://www.w3.org/2000/svg">
<rect width="300" height="300" rx="100" fill="#FCA311"/>
<path d="M140.086 195.547C139.523 196.578 138.82 197.656 137.977 198.781C137.227 199.906 136.195 200.469 134.883 200.469C134.789 201.312 134.555 201.734 134.18 201.734C133.805 201.734 133.664 201.922 133.758 202.297C132.727 202.109 131.602 202.016 130.383 202.016C129.258 202.016 128.227 202.297 127.289 202.859C125.602 202.016 123.773 201.641 121.805 201.734C119.93 201.828 118.055 201.781 116.18 201.594C115.617 201.594 115.055 201.547 114.492 201.453C114.023 201.266 113.508 201.125 112.945 201.031C112.57 200.938 112.242 201.078 111.961 201.453C111.68 201.734 111.352 201.875 110.977 201.875C110.602 201.688 110.227 201.641 109.852 201.734C109.57 201.828 109.242 201.875 108.867 201.875C108.492 201.875 108.164 201.828 107.883 201.734C107.602 201.641 107.273 201.594 106.898 201.594C106.336 201.594 105.773 201.734 105.211 202.016C104.742 202.297 104.18 202.438 103.523 202.438C102.492 202.438 101.508 202.344 100.57 202.156C99.6328 201.969 98.6484 201.875 97.6172 201.875C97.1484 201.875 96.6328 202.016 96.0703 202.297C95.6016 202.484 95.1328 202.578 94.6641 202.578C94.3828 202.578 94.1016 202.531 93.8203 202.438C93.6328 202.344 93.3984 202.297 93.1172 202.297C92.4609 202.297 91.8516 202.391 91.2891 202.578C90.7266 202.766 90.1172 202.859 89.4609 202.859C88.9922 202.859 88.4766 202.859 87.9141 202.859C87.4453 202.766 86.9297 202.719 86.3672 202.719C85.2422 202.719 84.4922 203.188 84.1172 204.125C83.8359 203.938 83.5547 203.75 83.2734 203.562C83.0859 203.469 82.8047 203.422 82.4297 203.422C81.4922 203.422 80.6953 203.703 80.0391 204.266C79.3828 204.922 78.6797 205.25 77.9297 205.25C77.1797 205.25 76.5234 205.109 75.9609 204.828C75.3984 204.641 74.7891 204.5 74.1328 204.406C74.2266 203.656 73.7578 202.766 72.7266 201.734C71.6953 200.609 71.0391 199.672 70.7578 198.922C71.4141 197.984 71.8359 196.906 72.0234 195.688C72.2109 194.375 71.9766 193.203 71.3203 192.172C71.9766 191.797 72.4453 191 72.7266 189.781C73.0078 188.469 73.1484 187.484 73.1484 186.828C73.1484 186.453 72.9609 186.312 72.5859 186.406C72.2109 186.406 72.0234 186.219 72.0234 185.844C72.0234 185.562 72.1172 185.141 72.3047 184.578C72.5859 183.922 72.8203 183.5 73.0078 183.312C72.6328 182.75 72.4922 182.328 72.5859 182.047C72.6797 181.766 72.9609 181.391 73.4297 180.922C73.0547 180.547 72.8672 180.125 72.8672 179.656C72.8672 179.094 72.8672 178.578 72.8672 178.109C72.8672 177.641 72.7734 177.219 72.5859 176.844C72.3984 176.375 71.9766 176 71.3203 175.719C71.3203 175.531 71.4141 175.297 71.6016 175.016C71.8828 174.734 72.0234 174.359 72.0234 173.891C72.0234 173.422 71.7891 172.719 71.3203 171.781C70.8516 170.844 70.8516 170.234 71.3203 169.953C71.3203 169.578 71.2266 169.297 71.0391 169.109C70.9453 168.828 71.1797 168.5 71.7422 168.125C71.3672 166.812 71.2734 165.594 71.4609 164.469C71.7422 163.344 71.5078 162.125 70.7578 160.812C71.0391 161 71.2266 161.047 71.3203 160.953C71.4141 160.766 71.4609 160.578 71.4609 160.391C71.4609 160.109 71.4609 159.922 71.4609 159.828C71.4609 159.641 71.5547 159.547 71.7422 159.547C72.0234 158.234 72.1172 156.828 72.0234 155.328C72.0234 153.828 71.9766 152.328 71.8828 150.828C71.8828 149.328 71.8828 147.875 71.8828 146.469C71.9766 145.062 72.1641 143.75 72.4453 142.531C73.1953 140.75 73.5703 139.344 73.5703 138.312C73.6641 137.188 73.7109 136.109 73.7109 135.078C73.7109 134.609 73.7578 134.188 73.8516 133.812C73.9453 133.344 74.2266 133.016 74.6953 132.828C74.5078 131.047 74.3203 129.312 74.1328 127.625C74.0391 125.844 74.3672 124.109 75.1172 122.422C74.7422 121.672 74.5078 121.156 74.4141 120.875C74.4141 120.5 74.4609 120.219 74.5547 120.031C74.6484 119.844 74.7422 119.656 74.8359 119.469C75.0234 119.188 75.1172 118.766 75.1172 118.203C75.1172 117.359 75.0234 116.562 74.8359 115.812C74.7422 114.969 74.6953 114.172 74.6953 113.422C74.6953 112.953 74.7422 112.203 74.8359 111.172C74.9297 110.047 75.0234 108.875 75.1172 107.656C75.3047 106.438 75.4453 105.312 75.5391 104.281C75.7266 103.25 75.9141 102.594 76.1016 102.312C76.2891 101.844 76.6641 101.516 77.2266 101.328C77.7891 101.141 78.0703 100.766 78.0703 100.203C78.2578 100.203 78.6328 100.203 79.1953 100.203C79.8516 100.109 80.2734 100.016 80.4609 99.9219C81.1172 99.6406 81.6328 99.5469 82.0078 99.6406C82.3828 99.6406 82.5234 99.4062 82.4297 98.9375C82.9922 99.4062 83.4141 99.6875 83.6953 99.7812C83.9766 99.7812 84.0234 100.016 83.8359 100.484C84.5859 100.672 85.1953 101 85.6641 101.469C86.1328 101.844 86.7422 102.219 87.4922 102.594C87.3047 103.531 87.3984 104.234 87.7734 104.703C88.2422 105.078 88.4766 105.641 88.4766 106.391C88.4766 106.766 88.3359 107.047 88.0547 107.234C87.7734 107.328 87.5859 107.516 87.4922 107.797C87.8672 108.922 87.9609 110.188 87.7734 111.594C87.6797 112.906 87.9141 114.078 88.4766 115.109C87.5391 116.797 87.0703 118.531 87.0703 120.312C87.0703 120.781 87.1172 121.203 87.2109 121.578C87.3984 121.859 87.4922 122.234 87.4922 122.703C87.4922 123.641 87.3516 124.531 87.0703 125.375C86.8828 126.219 86.7891 127.062 86.7891 127.906C86.7891 128.469 86.8359 129.031 86.9297 129.594C87.0234 130.156 87.0703 130.719 87.0703 131.281C87.0703 132.406 86.9297 133.578 86.6484 134.797C86.3672 136.016 86.4141 137.188 86.7891 138.312C86.3203 138.594 86.0391 138.969 85.9453 139.438C85.9453 139.906 85.8047 140.328 85.5234 140.703C85.9922 141.828 86.0391 142.906 85.6641 143.938C85.2891 144.969 85.1016 146.047 85.1016 147.172C85.1016 147.453 85.1484 147.734 85.2422 148.016C85.4297 148.297 85.5234 148.625 85.5234 149C85.3359 149.75 85.2891 150.125 85.3828 150.125C85.4766 150.125 85.5234 150.219 85.5234 150.406C85.5234 150.969 85.3359 151.625 84.9609 152.375C84.5859 153.031 84.3984 153.734 84.3984 154.484C84.3984 154.672 84.4922 154.906 84.6797 155.188C84.9609 155.469 85.1016 155.703 85.1016 155.891C85.1016 156.734 85.0078 157.578 84.8203 158.422C84.7266 159.172 85.0547 159.875 85.8047 160.531C85.5234 161.281 85.3828 161.938 85.3828 162.5C85.4766 163.062 85.5234 163.719 85.5234 164.469C85.5234 165.031 85.3828 165.594 85.1016 166.156C84.9141 166.719 84.8203 167.281 84.8203 167.844C84.8203 168.781 84.9609 169.672 85.2422 170.516C85.6172 171.359 85.8047 172.25 85.8047 173.188C85.8047 173.75 85.8984 174.266 86.0859 174.734C86.2734 175.109 86.4609 175.531 86.6484 176C86.9297 176.469 87.0703 176.984 87.0703 177.547C87.1641 178.016 87.0703 178.625 86.7891 179.375C86.8828 179.75 87.0234 180.078 87.2109 180.359C87.3984 180.641 87.4922 180.969 87.4922 181.344C87.4922 181.812 87.3984 182.281 87.2109 182.75C87.1172 183.125 86.9766 183.547 86.7891 184.016C87.0703 184.578 87.2109 185.141 87.2109 185.703C87.2109 186.266 87.1641 186.828 87.0703 187.391C87.0703 187.953 87.0703 188.516 87.0703 189.078C87.1641 189.641 87.3984 190.156 87.7734 190.625C88.5234 190.438 89.2734 190.438 90.0234 190.625C90.7734 190.719 91.5234 190.766 92.2734 190.766C92.9297 190.766 93.4922 190.672 93.9609 190.484C94.4297 190.203 94.9453 189.969 95.5078 189.781C96.2578 189.969 97.0078 190.109 97.7578 190.203C98.6016 190.297 99.3984 190.438 100.148 190.625C100.43 190.344 100.758 190.25 101.133 190.344C101.508 190.438 101.883 190.531 102.258 190.625C102.727 190.625 103.148 190.625 103.523 190.625C103.898 190.531 104.227 190.25 104.508 189.781C105.352 189.875 106.102 190.062 106.758 190.344C107.508 190.531 108.352 190.531 109.289 190.344C110.133 190.156 110.883 190.156 111.539 190.344C112.195 190.438 112.898 190.484 113.648 190.484C114.398 190.484 115.148 190.391 115.898 190.203C116.742 189.922 117.539 189.781 118.289 189.781C118.758 189.781 119.086 189.875 119.273 190.062C119.555 190.25 119.883 190.438 120.258 190.625C121.289 190.531 122.555 190.391 124.055 190.203C125.648 189.922 126.867 189.547 127.711 189.078C128.18 188.891 128.461 188.609 128.555 188.234C128.742 187.766 129.117 187.438 129.68 187.25C130.336 187.719 130.758 188.094 130.945 188.375C131.227 188.656 131.789 188.703 132.633 188.516C132.82 188.797 133.008 189.078 133.195 189.359C133.383 189.547 133.57 189.781 133.758 190.062C134.227 190.062 134.695 190.156 135.164 190.344C135.727 190.438 136.242 190.531 136.711 190.625C137.555 191.281 138.211 192.078 138.68 193.016C139.148 193.859 139.617 194.703 140.086 195.547ZM234.023 180.359C233.086 181.297 232.477 182.422 232.195 183.734C232.008 184.953 231.398 186.031 230.367 186.969C230.555 187.438 230.648 187.719 230.648 187.812C230.648 187.906 230.555 188.141 230.367 188.516C229.898 188.984 229.477 189.406 229.102 189.781C228.727 190.156 228.445 190.672 228.258 191.328C227.977 191.516 227.695 191.75 227.414 192.031C227.227 192.219 226.898 192.359 226.43 192.453C226.43 192.922 226.289 193.344 226.008 193.719C225.82 194.094 225.773 194.516 225.867 194.984C225.305 194.891 224.977 195.078 224.883 195.547C224.789 195.922 224.414 196.016 223.758 195.828C223.477 196.016 223.195 196.203 222.914 196.391C222.633 196.484 222.398 196.719 222.211 197.094C221.742 196.719 221.273 196.766 220.805 197.234C220.43 197.703 219.82 197.938 218.977 197.938C217.852 198.594 216.961 198.922 216.305 198.922C215.648 198.922 215.086 199.203 214.617 199.766C214.336 199.859 214.102 199.812 213.914 199.625C213.727 199.438 213.445 199.391 213.07 199.484C212.977 199.859 212.742 200.047 212.367 200.047C212.086 199.953 211.805 199.953 211.523 200.047C210.773 200.797 210.211 201.172 209.836 201.172C209.555 201.078 209.508 201.219 209.695 201.594C208.758 201.688 207.633 201.922 206.32 202.297C205.102 202.578 204.117 202.438 203.367 201.875C202.711 202.062 202.102 202.156 201.539 202.156C200.977 202.156 200.414 202.156 199.852 202.156C199.383 202.156 199.102 202.344 199.008 202.719C198.914 203.094 198.633 203.234 198.164 203.141C197.414 202.766 196.805 202.672 196.336 202.859C195.867 203.047 195.398 203.141 194.93 203.141C194.461 203.234 193.945 203.328 193.383 203.422C192.914 203.609 192.492 203.844 192.117 204.125C191.367 203.844 190.664 203.797 190.008 203.984C189.352 204.172 188.695 203.984 188.039 203.422C187.57 203.891 187.008 203.984 186.352 203.703C185.789 203.516 185.18 203.422 184.523 203.422C184.055 203.422 183.633 203.516 183.258 203.703C182.883 203.891 182.461 204.031 181.992 204.125C181.523 204.219 181.102 204.219 180.727 204.125C180.445 204.125 180.07 204.125 179.602 204.125C179.227 204.125 178.898 204.172 178.617 204.266C178.336 204.359 178.055 204.406 177.773 204.406C177.117 204.406 176.508 204.312 175.945 204.125C175.383 204.031 174.82 203.984 174.258 203.984C173.602 203.984 172.945 204.125 172.289 204.406C171.727 204.688 171.117 204.828 170.461 204.828C169.617 204.828 168.82 204.688 168.07 204.406C167.32 204.219 166.57 204.125 165.82 204.125C164.977 204.125 164.133 204.219 163.289 204.406C162.539 204.594 161.742 204.688 160.898 204.688C160.43 204.688 160.102 204.5 159.914 204.125C159.82 203.844 159.68 203.609 159.492 203.422C159.211 203.234 158.883 203.094 158.508 203C158.133 202.906 157.852 202.766 157.664 202.578C157.383 202.297 157.195 201.969 157.102 201.594C157.102 201.125 156.773 200.938 156.117 201.031C156.398 199.625 156.492 198.594 156.398 197.938C156.398 197.281 156.258 196.766 155.977 196.391C155.789 196.016 155.555 195.734 155.273 195.547C155.086 195.359 154.945 195.031 154.852 194.562C154.664 194.375 154.43 194.328 154.148 194.422C153.867 194.516 153.586 194.375 153.305 194C153.398 193.156 153.445 192.453 153.445 191.891C153.539 191.328 153.914 190.719 154.57 190.062C154.664 189.688 154.57 189.453 154.289 189.359C154.102 189.172 153.914 188.984 153.727 188.797C154.008 188.047 154.008 187.156 153.727 186.125C153.539 185 153.82 184.156 154.57 183.594C154.195 182.938 154.102 182.234 154.289 181.484C154.477 180.641 154.57 179.844 154.57 179.094C154.57 178.25 154.523 177.312 154.43 176.281C154.336 175.25 154.477 174.359 154.852 173.609C154.664 172.766 154.336 171.922 153.867 171.078C153.492 170.141 153.117 169.25 152.742 168.406C152.742 168.031 152.883 167.891 153.164 167.984C153.539 167.984 153.727 167.609 153.727 166.859C153.727 166.297 153.633 165.734 153.445 165.172C153.352 164.609 153.539 164.094 154.008 163.625C153.82 162.875 153.492 161.984 153.023 160.953C152.648 159.922 152.742 159.078 153.305 158.422L152.039 155.047C152.32 154.016 152.367 153.406 152.18 153.219C151.992 153.031 151.898 152.844 151.898 152.656C151.898 152.281 151.945 151.953 152.039 151.672C152.133 151.391 152.18 151.062 152.18 150.688C152.18 149.844 152.18 149 152.18 148.156C152.18 147.312 152.086 146.469 151.898 145.625C151.711 145.062 151.523 144.641 151.336 144.359C151.242 143.984 151.195 143.469 151.195 142.812C151.195 142.344 151.102 142.062 150.914 141.969C150.727 141.781 150.633 141.5 150.633 141.125C150.82 140.188 150.867 139.531 150.773 139.156C150.68 138.688 150.633 138.219 150.633 137.75C150.633 137.281 150.727 136.812 150.914 136.344C151.102 135.875 151.195 135.406 151.195 134.938C151.195 134.469 151.102 134.047 150.914 133.672C150.727 133.203 150.633 132.828 150.633 132.547C150.633 132.172 150.727 131.844 150.914 131.562C151.102 131.281 151.195 130.906 151.195 130.438C151.195 129.406 151.148 128.844 151.055 128.75C150.961 128.562 150.914 128.375 150.914 128.188C150.914 127.438 150.961 126.641 151.055 125.797C151.242 124.953 151.102 124.156 150.633 123.406C150.539 122.094 150.445 120.781 150.352 119.469C150.352 118.062 150.352 116.797 150.352 115.672C150.352 115.391 150.398 115.109 150.492 114.828C150.586 114.547 150.633 114.219 150.633 113.844C150.258 113 150.258 112.391 150.633 112.016C150.352 110.984 150.305 110.422 150.492 110.328C150.773 110.141 150.914 109.812 150.914 109.344C150.914 108.875 150.867 108.5 150.773 108.219C150.68 107.844 150.727 107.422 150.914 106.953C150.727 106.484 150.445 106.156 150.07 105.969C149.695 105.688 149.461 105.266 149.367 104.703C150.117 103.109 151.008 101.75 152.039 100.625C153.07 99.4062 154.523 98.6562 156.398 98.375C157.43 97.625 157.992 97.4375 158.086 97.8125C158.18 98.1875 158.461 98.375 158.93 98.375C160.148 98.375 161.227 98.2344 162.164 97.9531C163.102 97.6719 164.227 98 165.539 98.9375C166.57 98.75 167.555 98.8438 168.492 99.2188C169.523 99.5 170.555 99.6406 171.586 99.6406C172.336 99.6406 172.992 99.5469 173.555 99.3594C174.211 99.1719 174.867 99.0781 175.523 99.0781C176.742 99.0781 177.914 99.2656 179.039 99.6406C180.164 100.016 181.336 100.203 182.555 100.203C183.117 100.203 183.633 100.156 184.102 100.062C184.664 99.9688 185.18 99.9219 185.648 99.9219C186.773 99.9219 187.852 100.109 188.883 100.484C189.914 100.859 190.992 101.188 192.117 101.469C192.492 101.562 192.82 101.609 193.102 101.609C193.477 101.516 193.852 101.562 194.227 101.75C194.695 101.938 195.164 102.172 195.633 102.453C196.289 102.547 196.852 102.734 197.32 103.016C197.695 103.203 198.023 103.391 198.305 103.578C198.68 103.766 198.82 103.953 198.727 104.141C199.945 103.953 200.789 104.094 201.258 104.562C201.82 105.031 202.617 105.219 203.648 105.125C203.836 105.5 204.07 105.828 204.352 106.109C204.727 106.297 204.914 106.672 204.914 107.234C205.852 107.703 206.602 108.359 207.164 109.203C207.82 109.953 208.57 110.609 209.414 111.172C209.602 111.359 209.836 111.453 210.117 111.453C210.492 111.453 210.773 111.547 210.961 111.734C211.148 111.922 211.289 112.156 211.383 112.438C211.477 112.625 211.617 112.812 211.805 113C212.836 113.469 213.398 113.891 213.492 114.266C213.68 114.547 214.055 114.641 214.617 114.547C214.523 115.578 214.57 116.469 214.758 117.219C215.039 117.969 215.602 118.672 216.445 119.328C216.07 119.984 215.836 120.5 215.742 120.875C215.742 121.25 215.977 121.344 216.445 121.156C216.258 121.719 216.117 122.047 216.023 122.141C215.93 122.141 215.836 122.562 215.742 123.406C215.742 123.688 215.93 123.828 216.305 123.828C216.773 123.828 216.914 124.062 216.727 124.531C216.258 124.719 215.93 124.812 215.742 124.812C215.555 124.812 215.461 125.141 215.461 125.797C215.461 126.172 215.555 126.453 215.742 126.641C216.023 126.828 216.258 127.062 216.445 127.344C216.352 128.375 215.977 129.5 215.32 130.719C214.758 131.844 214.477 132.594 214.477 132.969C214.758 133.625 214.805 134.047 214.617 134.234C214.43 134.328 214.195 134.375 213.914 134.375C214.102 134.938 214.008 135.359 213.633 135.641C213.258 135.828 212.977 136.016 212.789 136.203C212.414 136.672 212.18 137.188 212.086 137.75C212.086 138.312 211.711 138.688 210.961 138.875C211.055 139.344 211.008 139.719 210.82 140C210.727 140.281 210.539 140.609 210.258 140.984C210.07 141.266 209.883 141.594 209.695 141.969C209.508 142.25 209.414 142.625 209.414 143.094C208.758 143 208.383 143.141 208.289 143.516C208.195 143.891 207.867 143.984 207.305 143.797C207.211 144.828 206.977 145.484 206.602 145.766C206.227 145.953 206.039 146.375 206.039 147.031C206.039 147.594 206.227 148.062 206.602 148.438C206.977 148.719 207.398 148.953 207.867 149.141C208.43 149.328 208.945 149.516 209.414 149.703C209.977 149.797 210.398 150.031 210.68 150.406C211.992 150.5 213.117 150.828 214.055 151.391C214.992 151.859 215.977 152.469 217.008 153.219C217.57 153.125 218.086 153.172 218.555 153.359C219.117 153.547 219.633 153.594 220.102 153.5C220.57 154.062 220.898 154.391 221.086 154.484C221.367 154.578 221.555 154.719 221.648 154.906C221.836 155 222.023 155.141 222.211 155.328C222.398 155.422 222.68 155.422 223.055 155.328C223.336 155.891 223.711 156.359 224.18 156.734C224.742 157.109 225.211 157.578 225.586 158.141C226.055 158.234 226.383 158.188 226.57 158C226.758 157.812 227.039 157.719 227.414 157.719V159.969C227.789 160.719 228.305 161.422 228.961 162.078C229.617 162.641 230.32 163.25 231.07 163.906C231.258 164.938 231.398 165.688 231.492 166.156C231.586 166.531 231.82 166.766 232.195 166.859C232.195 167.609 232.383 168.312 232.758 168.969C233.133 169.625 233.367 170.328 233.461 171.078C233.93 171.641 234.023 172.016 233.742 172.203C233.461 172.297 233.32 172.438 233.32 172.625C233.32 173.375 233.508 174.172 233.883 175.016C234.258 175.859 234.445 176.703 234.445 177.547C234.445 178.016 234.352 178.484 234.164 178.953C234.07 179.422 234.023 179.891 234.023 180.359ZM201.539 119.328C200.695 118.578 200.133 118.062 199.852 117.781C199.57 117.406 199.195 117.125 198.727 116.938C197.883 116.562 197.367 116.281 197.18 116.094C196.992 115.812 196.805 115.578 196.617 115.391C196.43 115.203 196.148 115.109 195.773 115.109C195.492 115.016 195.258 114.828 195.07 114.547H192.68C192.492 114.547 192.258 114.406 191.977 114.125C191.789 113.844 191.602 113.656 191.414 113.562C190.852 113.281 190.195 113.188 189.445 113.281C188.789 113.281 188.133 113.188 187.477 113C187.008 112.812 186.586 112.625 186.211 112.438C185.93 112.156 185.508 112.016 184.945 112.016C183.633 112.109 182.695 111.969 182.133 111.594C181.57 111.125 180.914 110.891 180.164 110.891C179.883 110.891 179.602 110.938 179.32 111.031C179.133 111.125 178.898 111.172 178.617 111.172C178.242 111.172 177.914 111.078 177.633 110.891C177.352 110.703 177.023 110.609 176.648 110.609C176.367 110.609 176.086 110.656 175.805 110.75C175.523 110.844 175.242 110.891 174.961 110.891C174.68 110.891 174.398 110.797 174.117 110.609C173.93 110.328 173.648 110.188 173.273 110.188C172.242 110.469 171.539 110.562 171.164 110.469C170.789 110.281 170.461 110.422 170.18 110.891C168.961 110.328 167.602 110.141 166.102 110.328C164.695 110.516 163.383 110.797 162.164 111.172C161.695 112.109 161.414 113.234 161.32 114.547C161.227 115.766 161.414 116.891 161.883 117.922C161.227 118.672 161.039 119.609 161.32 120.734C161.695 121.766 161.695 122.75 161.32 123.688C162.07 124.062 162.398 124.859 162.305 126.078C162.305 127.203 162.258 128.141 162.164 128.891C162.164 129.078 162.07 129.312 161.883 129.594C161.695 129.781 161.602 130.016 161.602 130.297C161.602 131.234 161.742 132.406 162.023 133.812C162.305 135.219 162.68 136.297 163.148 137.047C162.961 137.516 162.727 137.891 162.445 138.172C162.258 138.359 162.164 138.688 162.164 139.156C162.164 139.719 162.352 140.141 162.727 140.422C163.195 140.703 163.43 141.359 163.43 142.391C163.43 143.047 163.523 143.656 163.711 144.219C163.898 144.688 163.992 145.25 163.992 145.906C164.742 145.719 165.492 145.719 166.242 145.906C166.992 146.094 167.742 146.188 168.492 146.188C168.961 146.188 169.336 146.141 169.617 146.047C169.898 145.859 170.273 145.719 170.742 145.625C171.305 146.094 171.773 146.234 172.148 146.047C172.617 145.859 173.133 145.766 173.695 145.766C175.102 145.484 176.227 145.25 177.07 145.062C178.008 144.875 178.945 144.828 179.883 144.922C180.258 144.828 180.492 144.641 180.586 144.359C180.68 143.984 180.961 143.797 181.43 143.797C182.742 143.797 183.961 143.703 185.086 143.516C186.211 143.328 187.43 142.906 188.742 142.25C189.023 142.438 189.539 142.531 190.289 142.531C190.758 142.156 191.227 141.922 191.695 141.828C192.258 141.734 192.773 141.688 193.242 141.688C193.336 141.312 193.617 140.984 194.086 140.703C194.555 140.328 195.07 139.953 195.633 139.578C196.195 139.203 196.711 138.875 197.18 138.594C197.742 138.219 198.164 137.891 198.445 137.609C199.008 136.672 199.336 136.156 199.43 136.062C199.617 135.875 199.805 135.688 199.992 135.5C200.273 135.031 200.461 134.609 200.555 134.234C200.742 133.766 200.977 133.297 201.258 132.828V130.297C201.914 129.922 202.57 129.359 203.227 128.609C203.883 127.766 204.211 126.969 204.211 126.219C204.211 125.844 204.164 125.516 204.07 125.234C203.977 124.953 203.93 124.625 203.93 124.25C203.93 123.781 203.977 123.406 204.07 123.125C204.164 122.75 204.211 122.328 204.211 121.859C204.211 121.391 203.883 120.922 203.227 120.453C202.57 119.891 202.008 119.516 201.539 119.328ZM219.398 169.391C219.211 168.641 218.883 168.125 218.414 167.844C217.945 167.469 217.477 167.047 217.008 166.578C216.727 166.297 216.445 165.922 216.164 165.453C215.883 164.984 215.555 164.656 215.18 164.469C214.805 164.188 214.383 164.047 213.914 164.047C213.539 163.953 213.164 163.812 212.789 163.625C212.602 163.438 212.32 163.203 211.945 162.922C211.57 162.547 211.336 162.359 211.242 162.359C210.492 162.359 210.023 162.266 209.836 162.078C209.742 161.891 209.602 161.797 209.414 161.797C208.664 161.422 207.914 161.234 207.164 161.234C206.414 161.234 205.664 161.094 204.914 160.812C204.445 160.625 204.023 160.344 203.648 159.969C203.273 159.5 202.852 159.172 202.383 158.984C202.102 158.797 201.773 158.75 201.398 158.844C201.117 158.844 200.836 158.797 200.555 158.703C200.273 158.516 200.039 158.375 199.852 158.281C199.664 158.094 199.383 157.906 199.008 157.719C198.258 157.531 197.414 157.484 196.477 157.578C195.633 157.578 194.789 157.531 193.945 157.438C193.664 156.969 193.289 156.688 192.82 156.594C192.352 156.406 191.977 156.078 191.695 155.609C190.945 155.609 190.102 155.562 189.164 155.469C188.32 155.281 187.57 155.422 186.914 155.891C186.258 155.703 185.555 155.703 184.805 155.891C184.148 156.078 183.445 156.266 182.695 156.453C182.039 156.641 181.336 156.781 180.586 156.875C179.93 156.969 179.273 156.781 178.617 156.312C177.023 157.156 175.195 157.25 173.133 156.594C172.664 156.781 172.242 157.062 171.867 157.438C171.586 157.719 171.211 157.953 170.742 158.141C169.336 158.516 168.633 158.75 168.633 158.844C168.727 158.938 168.398 158.984 167.648 158.984C166.336 158.984 165.352 159.312 164.695 159.969C165.07 160.906 165.211 161.844 165.117 162.781C165.117 163.719 165.117 164.703 165.117 165.734C165.117 166.484 165.258 167.188 165.539 167.844C165.82 168.406 165.961 169.016 165.961 169.672C166.242 170.609 166.383 171.406 166.383 172.062C166.383 172.625 166.195 173.141 165.82 173.609C166.383 173.891 166.617 174.5 166.523 175.438C166.43 176.375 166.289 177.078 166.102 177.547C166.195 178.016 166.43 178.25 166.805 178.25C167.18 178.156 167.273 178.438 167.086 179.094C167.273 179.656 167.18 180.312 166.805 181.062C166.523 181.812 166.289 182.469 166.102 183.031C166.289 183.5 166.43 183.922 166.523 184.297C166.617 184.672 166.711 185.047 166.805 185.422C166.242 185.516 165.867 185.797 165.68 186.266C165.586 186.734 165.445 187.203 165.258 187.672C165.727 188.609 166.148 189.453 166.523 190.203C166.898 190.859 167.086 191.703 167.086 192.734C167.461 192.734 167.789 192.828 168.07 193.016C168.445 193.109 168.82 193.156 169.195 193.156C170.039 192.875 170.602 192.922 170.883 193.297C171.258 193.578 171.68 193.719 172.148 193.719C173.086 193.531 173.695 193.531 173.977 193.719C174.352 193.812 174.68 193.906 174.961 194C175.617 194.188 176.227 194.281 176.789 194.281C177.445 194.281 178.055 194.281 178.617 194.281C178.992 194.281 179.32 194.188 179.602 194C179.883 193.812 180.164 193.719 180.445 193.719C181.102 193.906 181.477 193.953 181.57 193.859C181.664 193.766 181.805 193.719 181.992 193.719C183.023 193.719 183.773 193.766 184.242 193.859C184.805 193.953 185.227 194 185.508 194C185.883 193.906 186.305 193.766 186.773 193.578C187.242 193.391 187.992 193.016 189.023 192.453C189.492 193.109 190.008 193.391 190.57 193.297C191.227 193.203 191.836 193.344 192.398 193.719C192.773 193.531 193.336 193.297 194.086 193.016C194.836 192.641 195.445 192.453 195.914 192.453C196.852 192.641 197.461 192.688 197.742 192.594C198.023 192.406 198.352 192.266 198.727 192.172C199.477 191.984 200.273 191.938 201.117 192.031C202.055 192.125 202.898 192.078 203.648 191.891C204.117 191.703 204.258 191.562 204.07 191.469C203.977 191.375 204.352 191.328 205.195 191.328C205.57 191.328 205.852 191.188 206.039 190.906C206.227 190.531 206.461 190.25 206.742 190.062C207.68 190.062 208.289 190.016 208.57 189.922C208.852 189.828 209.133 189.688 209.414 189.5C210.07 189.594 210.773 189.5 211.523 189.219C212.273 188.938 212.977 188.656 213.633 188.375C214.289 188 214.898 187.672 215.461 187.391C216.023 187.109 216.445 186.969 216.727 186.969C217.195 186.312 217.664 185.75 218.133 185.281C218.695 184.719 219.352 184.297 220.102 184.016C220.008 183.266 220.242 182.703 220.805 182.328C221.367 181.953 221.742 181.297 221.93 180.359C222.492 179.516 222.82 178.719 222.914 177.969C223.008 177.125 223.055 176.469 223.055 176C223.055 175.812 222.961 175.484 222.773 175.016C222.68 174.453 222.492 173.891 222.211 173.328C222.023 172.766 221.836 172.25 221.648 171.781C221.461 171.312 221.32 171.031 221.227 170.938C221.039 170.562 220.758 170.281 220.383 170.094C220.008 169.906 219.68 169.672 219.398 169.391Z" fill="#14213D"/>
</svg>
